# xmcd CD database file
#
# Track frame offsets:
#	150
#	19476
#	34112
#	50865
#	67637
#	81746
#	95799
#	111305
#	126382
#
# Disc length: 1986 seconds
#
# Revision: 1
# Processed by: cddbd v1.5.2PL0 Copyright (c) Steve Scherf et al.
# Submitted via: CDex 1.51
#
DISCID=8607c009
DTITLE=K.C. Johnson - There I Am
DYEAR=2004
DGENRE=Blues
TTITLE0=Whatcha Gotta Do
TTITLE1=One Lane Road
TTITLE2=The Chance
TTITLE3=No Friend Of Mine
TTITLE4=Precious Time
TTITLE5=Try And Try
TTITLE6=There I Am
TTITLE7=I Believe Your Lies
TTITLE8=I'd Start At The Bottom
EXTD=YEAR: 2004
EXTT0=
EXTT1=
EXTT2=
EXTT3=
EXTT4=
EXTT5=
EXTT6=
EXTT7=
EXTT8=
PLAYORDER=
